<?xml version="1.0" encoding="UTF-8"?>
<!DOCTYPE svg PUBLIC "-//W3C//DTD SVG 1.1//EN" "http://www.w3.org/Graphics/SVG/1.1/DTD/svg11.dtd">
<!-- Creator: CorelDRAW X7 -->
<svg xmlns="http://www.w3.org/2000/svg" xml:space="preserve" width="5.88954in" height="4.63283in" version="1.1" style="shape-rendering:geometricPrecision; text-rendering:geometricPrecision; image-rendering:optimizeQuality; fill-rule:evenodd; clip-rule:evenodd"
viewBox="0 0 5890 4633"
 xmlns:xlink="http://www.w3.org/1999/xlink">
 <defs>
  <style type="text/css">
   <![CDATA[
    .fil0 {fill:#373435}
   ]]>
  </style>
 </defs>
 <g id="Layer_x0020_1">
  <metadata id="CorelCorpID_0Corel-Layer"/>
  <g id="_2565117436784">
   <g>
    <path class="fil0" d="M1839 0c-1014,0 -1839,825 -1839,1839l0 1575 0 524 0 242c0,250 203,453 453,453 249,0 452,-203 452,-453l0 -766c0,0 0,0 0,0l0 -1575c0,-515 420,-934 935,-934 515,0 934,419 934,934l0 734 0 240 0 526c0,60 -49,109 -110,109 -60,0 -109,-49 -109,-109l0 -526 0 -240 0 -237 0 -497c0,-394 -321,-715 -715,-715 -395,0 -716,321 -716,715l0 2099c0,95 77,171 171,171 95,0 172,-76 172,-171l0 -2099c0,-205 167,-372 372,-372 205,0 372,167 372,372l0 497 0 237 0 240 0 526c0,249 203,452 453,452 106,0 203,-37 281,-98 77,61 174,98 281,98 249,0 452,-203 452,-452l0 -526 0 -200 0 -40 0 -734c0,-205 167,-372 372,-372 206,0 373,167 373,372l0 2099c0,95 76,171 171,171 94,0 171,-76 171,-171l0 -2099c0,-394 -321,-715 -715,-715 -394,0 -715,321 -715,715l0 734 0 158 0 82 0 526c0,60 -49,109 -110,109 -60,0 -110,-49 -110,-109l0 -526 0 -240 0 -734c0,-515 420,-934 935,-934 515,0 934,419 934,934l0 1575c0,0 0,0 0,0l0 766c0,250 204,453 453,453 249,0 453,-203 453,-453l0 -242 0 -524 0 -1575c0,-1014 -826,-1839 -1840,-1839 -415,0 -797,139 -1105,371 -308,-232 -691,-371 -1106,-371zm1244 1008c-52,61 -98,125 -138,194 -221,-382 -634,-639 -1106,-639 -704,0 -1277,573 -1277,1277l0 2098c0,0 0,0 0,1l0 242c0,60 -49,109 -109,109 -61,0 -110,-49 -110,-109l0 -243 0 -524 0 -1575c0,-825 671,-1497 1497,-1497 517,1 974,265 1243,666zm968 -665c825,0 1497,671 1497,1497l0 1574 0 524 0 242c0,61 -50,110 -110,110 -61,0 -110,-49 -110,-110l0 -242c0,0 0,0 0,0l0 -2099c0,-704 -573,-1277 -1277,-1277 -263,0 -507,80 -711,217 -42,-60 -88,-117 -137,-172 241,-167 533,-264 848,-264z"/>
   </g>
  </g>
 </g>
</svg>
