<?xml version="1.0" encoding="utf-8"?>
<!-- Generator: Adobe Illustrator 19.0.0, SVG Export Plug-In . SVG Version: 6.00 Build 0)  -->
<svg version="1.1" id="Layer_1" xmlns="http://www.w3.org/2000/svg" xmlns:xlink="http://www.w3.org/1999/xlink" x="0px" y="0px"
	 viewBox="0 0 2048 1536" style="enable-background:new 0 0 2048 1536;" xml:space="preserve">
<style type="text/css">
	.st0{fill:#FFFFFF;}
</style>
<g>
	<path class="st0" d="M750.1,194.2c-251.2,0-455.6,204.4-455.6,455.6V1040v129.7v60c0,61.8,50.3,112.1,112.1,112.1
		c61.8,0,112.1-50.3,112.1-112.1V1040c0,0,0,0,0,0V649.8c0-127.6,103.9-231.5,231.5-231.5c127.6,0,231.5,103.9,231.5,231.5v181.7
		v59.6v130.1c0,15-12.2,27.2-27.2,27.2c-15,0-27.2-12.2-27.2-27.2V891.1v-59.6v-58.7v-123c0-97.6-79.4-177.1-177.1-177.1
		S573,552.2,573,649.8v519.9c0,23.4,19,42.4,42.4,42.4c23.4,0,42.4-19,42.4-42.4V649.8c0-50.9,41.4-92.2,92.2-92.2
		s92.2,41.4,92.2,92.2v123v58.7v59.6v130.1c0,61.8,50.3,112.1,112.1,112.1c26.3,0,50.5-9.2,69.6-24.4c19.1,15.2,43.3,24.4,69.6,24.4
		c61.8,0,112.1-50.3,112.1-112.1V891.1v-49.6v-10V649.8c0-50.9,41.4-92.2,92.2-92.2c50.9,0,92.2,41.4,92.2,92.2v519.9
		c0,23.4,19,42.4,42.4,42.4c23.4,0,42.4-19,42.4-42.4V649.8c0-97.6-79.4-177.1-177.1-177.1c-97.6,0-177.1,79.4-177.1,177.1v181.7
		v39.3v20.3v130.1c0,15-12.2,27.2-27.2,27.2c-15,0-27.2-12.2-27.2-27.2V891.1v-59.6V649.8c0-127.6,103.9-231.5,231.5-231.5
		c127.6,0,231.5,103.9,231.5,231.5V1040c0,0,0,0,0,0v189.7c0,61.8,50.3,112.1,112.1,112.1c61.8,0,112.1-50.3,112.1-112.1v-60V1040
		V649.8c0-251.2-204.4-455.6-455.6-455.6c-102.8,0-197.6,34.4-273.9,92C947.7,228.6,852.9,194.2,750.1,194.2z M1058.1,444
		c-12.8,14.9-24.2,30.9-34.1,48c-54.8-94.6-157-158.4-273.9-158.4c-174.4,0-316.3,141.9-316.3,316.3v519.9c0,0,0,0,0,0.1v59.9
		c0,15-12.2,27.2-27.2,27.2c-15,0-27.2-12.2-27.2-27.2v-60V1040V649.8c0-204.5,166.3-370.8,370.8-370.8
		C878.4,279.1,991.5,344.6,1058.1,444z M1297.9,279.1c204.5,0,370.8,166.3,370.8,370.8V1040v129.7v60c0,15-12.2,27.2-27.2,27.2
		c-15,0-27.2-12.2-27.2-27.2v-59.9c0,0,0,0,0-0.1V649.8c0-174.4-141.9-316.3-316.3-316.3c-65.1,0-125.7,19.8-176.1,53.7
		c-10.5-14.9-21.9-29.1-34.1-42.6C1147.5,303.3,1219.9,279.1,1297.9,279.1z"/>
</g>
</svg>
